<svg xmlns="http://www.w3.org/2000/svg" width="1200" height="660" viewBox="0 0 1200 660" role="img" aria-labelledby="title desc">
<title id="title">p5.js example output</title><desc id="desc">An illustrative canvas showing the kind of reviewable output produced by p5.js.</desc>
<rect width="1200" height="660" rx="26" fill="#F8FAFC"/><rect width="1200" height="14" rx="7" fill="#0369A1"/>
<style>text { font-family: Inter, ui-sans-serif, system-ui, -apple-system, BlinkMacSystemFont, "Segoe UI", sans-serif; }</style>
<text x="54" y="62" font-size="14" font-weight="750" fill="#0369A1" text-anchor="start"><tspan x="54" dy="0">EXAMPLE CANVAS OUTPUT</tspan></text><text x="54" y="110" font-size="31" font-weight="760" fill="#0F172A" text-anchor="start"><tspan x="54" dy="0">p5.js</tspan></text><rect x="70" y="175" width="1060" height="455" rx="22" fill="#FFFFFF" stroke="#CBD5E1"/><rect x="95" y="205" width="160" height="390" rx="14" fill="#F0F9FF" stroke="#E0F2FE"/><text x="125" y="245" font-size="14" font-weight="750" fill="#0369A1" text-anchor="start"><tspan x="125" dy="0">TOOLS</tspan></text><rect x="280" y="205" width="600" height="390" rx="14" fill="#F8FAFC" stroke="#CBD5E1"/><rect x="905" y="205" width="195" height="390" rx="14" fill="#F0F9FF" stroke="#E0F2FE"/><text x="930" y="245" font-size="14" font-weight="750" fill="#0369A1" text-anchor="start"><tspan x="930" dy="0">PROPERTIES</tspan></text><circle cx="580" cy="380" r="105" fill="#E0F2FE" stroke="#0369A1" stroke-width="4"/><rect x="480" y="330" width="260" height="130" rx="18" fill="#FFFFFF" stroke="#0369A1"/><text x="610" y="380" font-size="20" font-weight="700" fill="#0369A1" text-anchor="middle"><tspan x="610" dy="0">800 × 800</tspan></text><text x="930" y="300" font-size="15" font-weight="600" fill="#475569" text-anchor="start"><tspan x="930" dy="0">800 × 800</tspan></text><text x="930" y="380" font-size="15" font-weight="600" fill="#475569" text-anchor="start"><tspan x="930" dy="0">Seed 4182</tspan></text><text x="930" y="460" font-size="15" font-weight="600" fill="#475569" text-anchor="start"><tspan x="930" dy="0">Mouse force</tspan></text></svg>